<svg width="352.0" height="120.0" viewBox="0 0 352.0 120.0" fill="none" xmlns="http://www.w3.org/2000/svg">
<svg x="14.00" y="14.00" width="49.56" height="92.00" viewBox="0 0 167 310" preserveAspectRatio="xMidYMid meet">
<path d="M83.5 5L31.5 97L53.5 175H113.5L135.5 97L83.5 5Z" stroke="#1A1D21" stroke-width="10" stroke-linecap="round" stroke-linejoin="round"></path>
<path d="M83.5 175V205" stroke="#1A1D21" stroke-width="10" stroke-linecap="round"></path>
<path d="M115.5 205H51.5C48.1863 205 45.5 207.686 45.5 211V299C45.5 302.314 48.1863 305 51.5 305H115.5C118.814 305 121.5 302.314 121.5 299V211C121.5 207.686 118.814 205 115.5 205Z" stroke="#1A1D21" stroke-width="10"></path>
<path d="M45.5 253H3.5" stroke="#1A1D21" stroke-width="7" stroke-linecap="round"></path>
<path d="M3.5 253V283" stroke="#1A1D21" stroke-width="7" stroke-linecap="round"></path>
<path d="M121.5 283H163.5" stroke="#1A1D21" stroke-width="7" stroke-linecap="round"></path>
</svg>
<g transform="translate(87.56 43.72)"><g transform="translate(0.00 32.56) scale(0.44)" fill="#1A1D21"><path d="M54.70-69.80L69.60-69.80L44 0L27 0L1.40-69.80L16.40-69.80L35.60-14.30L54.70-69.80ZM129.50-28.90Q129.50-25.90 129.10-23.50L129.10-23.50L88.60-23.50Q89.10-17.50 92.80-14.10Q96.50-10.70 101.90-10.70L101.90-10.70Q109.70-10.70 113.00-17.40L113.00-17.40L128.10-17.40Q125.70-9.40 118.90-4.25Q112.10 0.90 102.20 0.90L102.20 0.90Q94.20 0.90 87.85-2.65Q81.50-6.20 77.95-12.70Q74.40-19.20 74.40-27.70L74.40-27.70Q74.40-36.30 77.90-42.80Q81.40-49.30 87.70-52.80Q94.00-56.30 102.20-56.30L102.20-56.30Q110.10-56.30 116.35-52.90Q122.60-49.50 126.05-43.25Q129.50-37 129.50-28.90L129.50-28.90ZM88.70-32.90L115.00-32.90Q114.90-38.30 111.10-41.55Q107.30-44.80 101.80-44.80L101.80-44.80Q96.60-44.80 93.05-41.65Q89.50-38.50 88.70-32.90L88.70-32.90ZM139.70-74L153.70-74L153.70 0L139.70 0L139.70-74ZM163.90-27.90Q163.90-36.30 167.25-42.80Q170.60-49.30 176.35-52.80Q182.10-56.30 189.20-56.30L189.20-56.30Q195.40-56.30 200.05-53.80Q204.70-51.30 207.50-47.50L207.50-47.50L207.50-55.40L221.60-55.40L221.60 0L207.50 0L207.50-8.10Q204.80-4.20 200.05-1.65Q195.30 0.90 189.10 0.90L189.10 0.90Q182.10 0.90 176.35-2.70Q170.60-6.30 167.25-12.85Q163.90-19.40 163.90-27.90L163.90-27.90ZM207.50-27.70Q207.50-32.80 205.50-36.45Q203.50-40.10 200.10-42.05Q196.70-44 192.80-44L192.80-44Q188.90-44 185.60-42.10Q182.30-40.20 180.25-36.55Q178.20-32.90 178.20-27.90L178.20-27.90Q178.20-22.90 180.25-19.15Q182.30-15.40 185.65-13.40Q189.00-11.40 192.80-11.40L192.80-11.40Q196.70-11.40 200.10-13.35Q203.50-15.30 205.50-18.95Q207.50-22.60 207.50-27.70L207.50-27.70Z"></path></g>
<g transform="translate(113.70 32.56) scale(0.44)" fill="#6B6B70"><path d="M29.20 0.70Q22.30 0.70 17.05-1.70Q11.80-4.10 8.80-8.40Q5.80-12.70 5.60-18L5.60-18L13-18Q13.50-12.90 17.50-9.05Q21.50-5.20 29.20-5.20L29.20-5.20Q36.30-5.20 40.45-8.85Q44.60-12.50 44.60-18.10L44.60-18.10Q44.60-22.60 42.30-25.35Q40-28.10 36.60-29.45Q33.20-30.80 27.20-32.40L27.20-32.40Q20.20-34.30 16.10-36.10Q12-37.90 9.10-41.70Q6.20-45.50 6.20-52L6.20-52Q6.20-57.40 9-61.65Q11.80-65.90 16.90-68.30Q22-70.70 28.60-70.70L28.60-70.70Q38.30-70.70 44.25-65.95Q50.20-61.20 51.10-53.70L51.10-53.70L43.50-53.70Q42.80-58 38.80-61.35Q34.80-64.70 28-64.70L28-64.70Q21.70-64.70 17.50-61.35Q13.30-58 13.30-52.20L13.30-52.20Q13.30-47.80 15.60-45.10Q17.90-42.40 21.35-41Q24.80-39.60 30.70-38L30.70-38Q37.50-36.10 41.70-34.25Q45.90-32.40 48.80-28.60Q51.70-24.80 51.70-18.40L51.70-18.40Q51.70-13.50 49.10-9.10Q46.50-4.70 41.40-2Q36.30 0.70 29.20 0.70L29.20 0.70ZM89.30-48.70L74.30-48.70L74.30-14.80Q74.30-9.80 76.20-7.90Q78.10-6 82.90-6L82.90-6L89.30-6L89.30 0L81.80 0Q74.40 0 70.80-3.45Q67.20-6.90 67.20-14.80L67.20-14.80L67.20-48.70L59.60-48.70L59.60-54.60L67.20-54.60L67.20-68.30L74.30-68.30L74.30-54.60L89.30-54.60L89.30-48.70ZM141.10-54.60L148.10-54.60L148.10 0L141.10 0L141.10-9.60Q138.70-4.50 133.70-1.80Q128.70 0.90 122.50 0.90L122.50 0.90Q112.70 0.90 106.50-5.15Q100.30-11.20 100.30-22.70L100.30-22.70L100.30-54.60L107.20-54.60L107.20-23.50Q107.20-14.60 111.65-9.90Q116.10-5.20 123.80-5.20L123.80-5.20Q131.70-5.20 136.40-10.20Q141.10-15.20 141.10-24.90L141.10-24.90L141.10-54.60ZM160.90-27.40Q160.90-35.80 164.30-42.15Q167.70-48.50 173.65-51.95Q179.60-55.40 187.10-55.40L187.10-55.40Q194.30-55.40 200.10-51.90Q205.90-48.40 208.60-42.80L208.60-42.80L208.60-74L215.60-74L215.60 0L208.60 0L208.60-12.20Q206.10-6.50 200.40-2.85Q194.70 0.80 187.00 0.80L187.00 0.80Q179.50 0.80 173.55-2.70Q167.60-6.20 164.25-12.60Q160.90-19 160.90-27.40L160.90-27.40ZM208.60-27.30Q208.60-33.90 205.90-38.90Q203.20-43.90 198.55-46.60Q193.90-49.30 188.30-49.30L188.30-49.30Q182.50-49.30 177.90-46.70Q173.30-44.10 170.65-39.15Q168.00-34.20 168.00-27.40L168.00-27.40Q168.00-20.70 170.65-15.65Q173.30-10.60 177.90-7.95Q182.50-5.30 188.30-5.30L188.30-5.30Q193.90-5.30 198.55-8Q203.20-10.70 205.90-15.70Q208.60-20.70 208.60-27.30L208.60-27.30ZM235.10-64.90Q233.00-64.90 231.50-66.40Q230.00-67.90 230.00-70.10L230.00-70.10Q230.00-72.30 231.50-73.75Q233.00-75.20 235.10-75.20L235.10-75.20Q237.20-75.20 238.70-73.75Q240.20-72.30 240.20-70.10L240.20-70.10Q240.20-67.90 238.70-66.40Q237.20-64.90 235.10-64.90L235.10-64.90ZM231.60-54.60L238.60-54.60L238.60 0L231.60 0L231.60-54.60ZM278.40 0.80Q270.70 0.80 264.55-2.65Q258.40-6.10 254.85-12.45Q251.30-18.80 251.30-27.30L251.30-27.30Q251.30-35.80 254.90-42.15Q258.50-48.50 264.70-51.95Q270.90-55.40 278.60-55.40L278.60-55.40Q286.30-55.40 292.55-51.95Q298.80-48.50 302.35-42.15Q305.90-35.80 305.90-27.30L305.90-27.30Q305.90-18.90 302.30-12.50Q298.70-6.10 292.40-2.65Q286.10 0.80 278.40 0.80L278.40 0.80ZM278.40-5.30Q283.80-5.30 288.40-7.75Q293-10.20 295.85-15.15Q298.70-20.10 298.70-27.30L298.70-27.30Q298.70-34.50 295.90-39.45Q293.10-44.40 288.50-46.85Q283.90-49.30 278.50-49.30L278.50-49.30Q273.10-49.30 268.50-46.85Q263.90-44.40 261.15-39.45Q258.40-34.50 258.40-27.30L258.40-27.30Q258.40-20.10 261.15-15.15Q263.90-10.20 268.45-7.75Q273-5.30 278.40-5.30L278.40-5.30Z"></path></g></g>
</svg>